<?xml version="1.0" standalone="no"?>
<!DOCTYPE svg PUBLIC "-//W3C//DTD SVG 20010904//EN"
 "http://www.w3.org/TR/2001/REC-SVG-20010904/DTD/svg10.dtd">
<svg version="1.0" xmlns="http://www.w3.org/2000/svg"
 width="200.000000pt" height="200.000000pt" viewBox="0 0 200.000000 200.000000"
 preserveAspectRatio="xMidYMid meet">
<metadata>
Created by potrace 1.14, written by Peter Selinger 2001-2017
</metadata>
<g transform="translate(0.000000,200.000000) scale(0.100000,-0.100000)"
fill="#000000" stroke="none">
<path d="M965 1990 c-66 -15 -98 -45 -123 -115 l-17 -47 -230 -133 c-210 -121
-232 -132 -258 -123 -16 6 -49 8 -74 5 -134 -15 -194 -181 -100 -277 l32 -33
0 -269 0 -269 -23 -22 c-72 -67 -72 -178 0 -243 12 -12 33 -27 45 -33 24 -12
98 -14 128 -2 13 5 33 0 65 -19 25 -15 66 -38 91 -52 24 -14 107 -62 185 -107
131 -75 142 -84 152 -120 22 -72 69 -113 145 -125 74 -12 156 43 177 118 12
43 13 44 244 178 174 101 238 133 252 127 39 -15 106 -9 146 13 47 27 75 69
81 123 6 56 -7 95 -45 133 l-32 33 1 269 1 268 31 33 c102 107 25 279 -125
279 -20 0 -44 -4 -54 -10 -15 -8 -62 15 -252 124 -231 134 -232 135 -248 179
-8 25 -24 55 -35 67 -38 42 -105 63 -160 50z m61 -90 c57 -22 72 -83 29 -125
-39 -40 -96 -32 -120 16 -21 40 -19 57 14 90 33 32 38 34 77 19z m-135 -195
c22 -19 45 -35 53 -35 11 0 14 -30 15 -163 l0 -163 -51 -18 c-36 -12 -69 -35
-105 -73 l-53 -54 -149 86 -149 86 -5 47 c-3 26 -6 55 -8 65 -3 13 42 44 201
137 113 65 207 119 209 120 2 0 21 -16 42 -35z m469 -84 c163 -95 204 -123
202 -137 -2 -11 -5 -40 -5 -66 l-2 -46 -145 -85 -146 -84 -39 45 c-37 43 -121
92 -157 92 -21 0 -19 -9 -21 178 l-2 143 41 24 c23 14 44 31 48 40 3 8 9 15
13 15 4 0 100 -54 213 -119z m-1023 -153 c42 -39 27 -108 -27 -127 -49 -17
-90 6 -103 58 -6 26 15 76 35 84 31 13 73 6 95 -15z m1432 5 c33 -28 37 -75 9
-106 -35 -40 -69 -44 -106 -12 -38 32 -42 70 -11 109 25 31 76 35 108 9z
m-1262 -234 c48 -29 99 -58 112 -66 l23 -15 -35 -36 c-71 -72 -88 -179 -44
-263 l24 -44 -89 -53 -89 -53 -42 20 c-24 12 -52 21 -63 21 -19 0 -20 8 -18
238 0 130 2 243 2 250 1 6 12 12 25 12 12 0 36 9 52 19 17 11 35 20 42 20 6 1
51 -22 100 -50z m1119 35 c13 -9 39 -20 57 -23 l32 -7 3 -247 2 -247 -22 0
c-13 0 -40 -9 -61 -20 l-38 -21 -83 48 -82 48 18 40 c35 80 14 171 -55 232
-19 17 -50 34 -67 38 -31 7 -27 10 112 91 78 45 147 83 151 84 4 0 19 -7 33
-16z m-502 -53 c47 -32 73 -77 84 -143 7 -41 9 -42 47 -43 57 -2 82 -12 105
-45 38 -54 16 -137 -43 -161 -20 -9 -112 -12 -306 -12 -240 0 -281 2 -309 17
-45 23 -72 71 -72 126 0 83 55 138 140 142 38 1 42 5 67 50 58 106 188 137
287 69z m-297 -488 l132 -5 0 -199 c0 -153 -3 -199 -13 -199 -7 0 -31 -16 -54
-36 l-42 -36 -208 120 c-131 77 -206 125 -203 134 2 7 6 38 8 68 l5 55 102 58
c70 40 107 55 121 51 11 -4 79 -9 152 -11z m671 -68 c53 -31 54 -33 57 -81 2
-27 5 -58 7 -68 2 -16 -36 -42 -204 -139 l-208 -120 -42 37 c-24 20 -47 40
-53 45 -8 5 -12 295 -6 379 1 9 35 12 134 13 72 0 141 4 152 8 20 8 38 0 163
-74z m-1151 -34 c7 -9 13 -30 13 -48 1 -91 -138 -100 -154 -9 -14 77 93 120
141 57z m1434 0 c37 -46 2 -123 -56 -123 -44 0 -74 22 -81 59 -16 84 84 131
137 64z m-726 -406 c34 -33 33 -78 -1 -110 -41 -38 -90 -31 -118 16 -47 79 55
159 119 94z"/>
</g>
</svg>
